<svg xmlns="http://www.w3.org/2000/svg" xmlns:xlink="http://www.w3.org/1999/xlink" width="700" zoomAndPan="magnify" viewBox="0 0 525 247.499998" height="330" preserveAspectRatio="xMidYMid meet" version="1.0"><defs><g/><clipPath id="d5d13ccc0a"><path d="M 12.472656 24.699219 L 219.804688 24.699219 L 219.804688 144 L 12.472656 144 Z M 12.472656 24.699219 " clip-rule="nonzero"/></clipPath><clipPath id="1e0f51f4f4"><path d="M 27 185 L 48 185 L 48 208.753906 L 27 208.753906 Z M 27 185 " clip-rule="nonzero"/></clipPath><clipPath id="421c1b2b78"><path d="M 54 185 L 101 185 L 101 208.753906 L 54 208.753906 Z M 54 185 " clip-rule="nonzero"/></clipPath><clipPath id="d068cc27cc"><path d="M 106 185 L 153 185 L 153 208.753906 L 106 208.753906 Z M 106 185 " clip-rule="nonzero"/></clipPath><clipPath id="d370b984af"><path d="M 158 185 L 205 185 L 205 208.753906 L 158 208.753906 Z M 158 185 " clip-rule="nonzero"/></clipPath></defs><g fill="#7f5ce9" fill-opacity="1"><g transform="translate(225.214519, 169.288085)"><g><path d="M 5.703125 0 L 5.703125 -53.875 L 31.9375 -53.875 C 37.582031 -53.875 42.046875 -52.566406 45.328125 -49.953125 C 48.617188 -47.335938 50.265625 -43.820312 50.265625 -39.40625 C 50.265625 -36.84375 49.695312 -34.519531 48.5625 -32.4375 C 47.4375 -30.363281 45.820312 -28.738281 43.71875 -27.5625 C 46.28125 -26.425781 48.28125 -24.765625 49.71875 -22.578125 C 51.15625 -20.398438 51.875 -17.878906 51.875 -15.015625 C 51.875 -12.085938 51.09375 -9.492188 49.53125 -7.234375 C 47.96875 -4.972656 45.785156 -3.203125 42.984375 -1.921875 C 40.191406 -0.640625 36.972656 0 33.328125 0 Z M 20.9375 -11.546875 L 30.328125 -11.546875 C 32.171875 -11.546875 33.59375 -11.992188 34.59375 -12.890625 C 35.59375 -13.785156 36.09375 -15.03125 36.09375 -16.625 C 36.09375 -18.21875 35.59375 -19.445312 34.59375 -20.3125 C 33.59375 -21.1875 32.171875 -21.625 30.328125 -21.625 L 20.9375 -21.625 Z M 20.9375 -32.71875 L 29.015625 -32.71875 C 32.765625 -32.71875 34.640625 -34.332031 34.640625 -37.5625 C 34.640625 -40.789062 32.765625 -42.40625 29.015625 -42.40625 L 20.9375 -42.40625 Z M 20.9375 -32.71875 "/></g></g></g><g fill="#7f5ce9" fill-opacity="1"><g transform="translate(277.00612, 169.288085)"><g><path d="M 5.703125 0 L 5.703125 -53.875 L 30.25 -53.875 C 34.613281 -53.875 38.375 -53.09375 41.53125 -51.53125 C 44.6875 -49.96875 47.125 -47.75 48.84375 -44.875 C 50.5625 -42 51.421875 -38.5625 51.421875 -34.5625 C 51.421875 -30.8125 50.648438 -27.535156 49.109375 -24.734375 C 47.566406 -21.941406 45.359375 -19.753906 42.484375 -18.171875 L 52.421875 0 L 34.796875 0 L 27.09375 -15.3125 L 21.25 -15.3125 L 21.25 0 Z M 20.9375 -27.703125 L 28.171875 -27.703125 C 30.628906 -27.703125 32.515625 -28.289062 33.828125 -29.46875 C 35.140625 -30.65625 35.796875 -32.328125 35.796875 -34.484375 C 35.796875 -36.640625 35.140625 -38.289062 33.828125 -39.4375 C 32.515625 -40.59375 30.628906 -41.171875 28.171875 -41.171875 L 20.9375 -41.171875 Z M 20.9375 -27.703125 "/></g></g></g><g fill="#7f5ce9" fill-opacity="1"><g transform="translate(330.106001, 169.288085)"><g><path d="M 5.703125 0 L 5.703125 -53.875 L 21.25 -53.875 L 21.25 0 Z M 5.703125 0 "/></g></g></g><g fill="#7f5ce9" fill-opacity="1"><g transform="translate(354.731717, 169.288085)"><g><path d="M 30.859375 1.15625 C 25.265625 1.15625 20.351562 -0.0195312 16.125 -2.375 C 11.894531 -4.738281 8.582031 -8.035156 6.1875 -12.265625 C 3.800781 -16.503906 2.609375 -21.394531 2.609375 -26.9375 C 2.609375 -32.476562 3.789062 -37.363281 6.15625 -41.59375 C 8.519531 -45.832031 11.816406 -49.128906 16.046875 -51.484375 C 20.273438 -53.847656 25.160156 -55.03125 30.703125 -55.03125 C 35.535156 -55.03125 39.898438 -54.101562 43.796875 -52.25 C 47.691406 -50.40625 50.960938 -47.816406 53.609375 -44.484375 C 56.253906 -41.148438 58.035156 -37.203125 58.953125 -32.640625 L 43.25 -32.640625 C 42.4375 -35.046875 40.953125 -36.976562 38.796875 -38.4375 C 36.640625 -39.90625 34.148438 -40.640625 31.328125 -40.640625 C 28.816406 -40.640625 26.582031 -40.0625 24.625 -38.90625 C 22.675781 -37.75 21.148438 -36.144531 20.046875 -34.09375 C 18.941406 -32.039062 18.390625 -29.65625 18.390625 -26.9375 C 18.390625 -24.269531 18.925781 -21.894531 20 -19.8125 C 21.082031 -17.738281 22.585938 -16.125 24.515625 -14.96875 C 26.441406 -13.8125 28.660156 -13.234375 31.171875 -13.234375 C 34.097656 -13.234375 36.640625 -13.988281 38.796875 -15.5 C 40.953125 -17.019531 42.515625 -19.035156 43.484375 -21.546875 L 59.265625 -21.546875 C 58.492188 -16.984375 56.800781 -12.992188 54.1875 -9.578125 C 51.570312 -6.171875 48.273438 -3.53125 44.296875 -1.65625 C 40.316406 0.21875 35.835938 1.15625 30.859375 1.15625 Z M 30.859375 1.15625 "/></g></g></g><g fill="#7f5ce9" fill-opacity="1"><g transform="translate(414.142116, 169.288085)"><g><path d="M 5.703125 0 L 5.703125 -53.875 L 21.25 -53.875 L 21.25 -34.5625 L 23.859375 -34.5625 C 25.703125 -34.5625 27.175781 -34.726562 28.28125 -35.0625 C 29.382812 -35.394531 30.28125 -35.984375 30.96875 -36.828125 C 31.664062 -37.671875 32.269531 -38.863281 32.78125 -40.40625 L 37.640625 -53.875 L 54.5 -53.875 L 46.484375 -33.796875 C 45.253906 -30.710938 43.816406 -28.171875 42.171875 -26.171875 L 56.34375 0 L 38.328125 0 L 28.015625 -20.390625 L 21.25 -20.390625 L 21.25 0 Z M 5.703125 0 "/></g></g></g><g fill="#7f5ce9" fill-opacity="1"><g transform="translate(470.012478, 169.288085)"><g><path d="M 25.015625 1.15625 C 18.035156 1.15625 12.566406 -0.5 8.609375 -3.8125 C 4.660156 -7.125 2.6875 -11.675781 2.6875 -17.46875 L 17.703125 -17.46875 C 17.703125 -15.414062 18.328125 -13.8125 19.578125 -12.65625 C 20.835938 -11.5 22.570312 -10.921875 24.78125 -10.921875 C 26.675781 -10.921875 28.160156 -11.289062 29.234375 -12.03125 C 30.316406 -12.78125 30.859375 -13.820312 30.859375 -15.15625 C 30.859375 -18.132812 27.628906 -20.265625 21.171875 -21.546875 C 9.109375 -23.859375 3.078125 -29.53125 3.078125 -38.5625 C 3.078125 -43.644531 4.910156 -47.660156 8.578125 -50.609375 C 12.242188 -53.554688 17.257812 -55.03125 23.625 -55.03125 C 28.039062 -55.03125 31.878906 -54.285156 35.140625 -52.796875 C 38.398438 -51.304688 40.910156 -49.1875 42.671875 -46.4375 C 44.441406 -43.695312 45.328125 -40.484375 45.328125 -36.796875 L 30.703125 -36.796875 C 30.703125 -38.847656 30.113281 -40.410156 28.9375 -41.484375 C 27.757812 -42.566406 26.09375 -43.109375 23.9375 -43.109375 C 22.144531 -43.109375 20.707031 -42.734375 19.625 -41.984375 C 18.550781 -41.242188 18.015625 -40.207031 18.015625 -38.875 C 18.015625 -37.488281 18.734375 -36.332031 20.171875 -35.40625 C 21.609375 -34.476562 24.046875 -33.628906 27.484375 -32.859375 C 34.046875 -31.421875 38.828125 -29.328125 41.828125 -26.578125 C 44.828125 -23.835938 46.328125 -20.238281 46.328125 -15.78125 C 46.328125 -10.488281 44.453125 -6.34375 40.703125 -3.34375 C 36.960938 -0.34375 31.734375 1.15625 25.015625 1.15625 Z M 25.015625 1.15625 "/></g></g></g><g fill="#4c307c" fill-opacity="1"><g transform="translate(240.26537, 204.514521)"><g><path d="M 12.859375 0.28125 C 11.359375 0.28125 10.019531 0.0703125 8.84375 -0.34375 C 7.664062 -0.769531 6.640625 -1.359375 5.765625 -2.109375 C 4.898438 -2.867188 4.179688 -3.75 3.609375 -4.75 C 3.046875 -5.757812 2.617188 -6.859375 2.328125 -8.046875 C 2.046875 -9.242188 1.90625 -10.484375 1.90625 -11.765625 C 1.90625 -13.035156 2.046875 -14.265625 2.328125 -15.453125 C 2.617188 -16.648438 3.046875 -17.753906 3.609375 -18.765625 C 4.179688 -19.773438 4.898438 -20.648438 5.765625 -21.390625 C 6.640625 -22.140625 7.664062 -22.722656 8.84375 -23.140625 C 10.019531 -23.566406 11.359375 -23.78125 12.859375 -23.78125 C 14.359375 -23.78125 15.695312 -23.566406 16.875 -23.140625 C 18.0625 -22.722656 19.085938 -22.140625 19.953125 -21.390625 C 20.828125 -20.648438 21.550781 -19.773438 22.125 -18.765625 C 22.707031 -17.753906 23.140625 -16.65625 23.421875 -15.46875 C 23.703125 -14.28125 23.84375 -13.046875 23.84375 -11.765625 C 23.84375 -10.484375 23.703125 -9.242188 23.421875 -8.046875 C 23.140625 -6.859375 22.707031 -5.757812 22.125 -4.75 C 21.550781 -3.75 20.828125 -2.867188 19.953125 -2.109375 C 19.085938 -1.359375 18.0625 -0.769531 16.875 -0.34375 C 15.695312 0.0703125 14.359375 0.28125 12.859375 0.28125 Z M 12.859375 -2.328125 C 14.265625 -2.328125 15.46875 -2.578125 16.46875 -3.078125 C 17.46875 -3.578125 18.28125 -4.265625 18.90625 -5.140625 C 19.539062 -6.015625 20.003906 -7.019531 20.296875 -8.15625 C 20.597656 -9.289062 20.75 -10.492188 20.75 -11.765625 C 20.75 -13.023438 20.597656 -14.21875 20.296875 -15.34375 C 20.003906 -16.476562 19.539062 -17.484375 18.90625 -18.359375 C 18.28125 -19.234375 17.46875 -19.921875 16.46875 -20.421875 C 15.46875 -20.921875 14.265625 -21.171875 12.859375 -21.171875 C 11.460938 -21.171875 10.265625 -20.921875 9.265625 -20.421875 C 8.273438 -19.921875 7.460938 -19.234375 6.828125 -18.359375 C 6.203125 -17.484375 5.738281 -16.476562 5.4375 -15.34375 C 5.132812 -14.21875 4.984375 -13.023438 4.984375 -11.765625 C 4.984375 -10.492188 5.132812 -9.289062 5.4375 -8.15625 C 5.738281 -7.019531 6.203125 -6.015625 6.828125 -5.140625 C 7.460938 -4.265625 8.273438 -3.578125 9.265625 -3.078125 C 10.265625 -2.578125 11.460938 -2.328125 12.859375 -2.328125 Z M 12.859375 -2.328125 "/></g></g></g><g fill="#4c307c" fill-opacity="1"><g transform="translate(279.641208, 204.514521)"><g><path d="M 17.578125 -23.5 L 20.40625 -23.5 L 20.40625 0 L 17.375 0 L 6.3125 -18.75 L 6.3125 0 L 3.5 0 L 3.5 -23.5 L 6.484375 -23.5 L 17.578125 -4.8125 Z M 17.578125 -23.5 "/></g></g></g><g fill="#4c307c" fill-opacity="1"><g transform="translate(317.170949, 204.514521)"><g><path d="M 2.65625 -9.140625 L 2.65625 -11.3125 L 11.890625 -11.3125 L 11.890625 -9.140625 Z M 2.65625 -9.140625 "/></g></g></g><g fill="#4c307c" fill-opacity="1"><g transform="translate(345.353673, 204.514521)"><g><path d="M 12.828125 0.28125 C 11.015625 0.28125 9.425781 -0.0234375 8.0625 -0.640625 C 6.695312 -1.253906 5.5625 -2.109375 4.65625 -3.203125 C 3.75 -4.296875 3.066406 -5.570312 2.609375 -7.03125 C 2.148438 -8.5 1.921875 -10.082031 1.921875 -11.78125 C 1.921875 -13.46875 2.148438 -15.046875 2.609375 -16.515625 C 3.066406 -17.984375 3.75 -19.257812 4.65625 -20.34375 C 5.570312 -21.4375 6.710938 -22.285156 8.078125 -22.890625 C 9.453125 -23.503906 11.0625 -23.8125 12.90625 -23.8125 C 15.21875 -23.8125 17.207031 -23.265625 18.875 -22.171875 C 20.539062 -21.078125 21.816406 -19.460938 22.703125 -17.328125 L 19.953125 -16.234375 C 19.410156 -17.921875 18.535156 -19.140625 17.328125 -19.890625 C 16.117188 -20.640625 14.632812 -21.015625 12.875 -21.015625 C 11.507812 -21.015625 10.320312 -20.789062 9.3125 -20.34375 C 8.3125 -19.90625 7.476562 -19.28125 6.8125 -18.46875 C 6.15625 -17.65625 5.660156 -16.691406 5.328125 -15.578125 C 5.003906 -14.460938 4.84375 -13.234375 4.84375 -11.890625 C 4.84375 -10.566406 4.992188 -9.335938 5.296875 -8.203125 C 5.597656 -7.066406 6.070312 -6.070312 6.71875 -5.21875 C 7.363281 -4.363281 8.191406 -3.695312 9.203125 -3.21875 C 10.210938 -2.75 11.421875 -2.515625 12.828125 -2.515625 C 14.566406 -2.515625 16.019531 -2.894531 17.1875 -3.65625 C 18.363281 -4.425781 19.3125 -5.65625 20.03125 -7.34375 L 22.734375 -6.234375 C 21.816406 -4.109375 20.507812 -2.488281 18.8125 -1.375 C 17.125 -0.269531 15.128906 0.28125 12.828125 0.28125 Z M 12.828125 0.28125 "/></g></g></g><g fill="#4c307c" fill-opacity="1"><g transform="translate(383.049733, 204.514521)"><g><path d="M 3.5 0 L 3.5 -23.5 L 6.421875 -23.5 L 6.421875 -13.15625 L 18.078125 -13.15625 L 18.078125 -23.5 L 21 -23.5 L 21 0 L 18.078125 0 L 18.078125 -10.4375 L 6.421875 -10.4375 L 6.421875 0 Z M 3.5 0 "/></g></g></g><g fill="#4c307c" fill-opacity="1"><g transform="translate(421.178207, 204.514521)"><g><path d="M 0.828125 0 L 9.78125 -23.5 L 12.109375 -23.5 L 21.0625 0 L 17.875 0 L 15.921875 -5.484375 L 6.015625 -5.484375 L 4.03125 0 Z M 6.9375 -8 L 15 -8 L 10.953125 -19.3125 Z M 6.9375 -8 "/></g></g></g><g fill="#4c307c" fill-opacity="1"><g transform="translate(456.678882, 204.514521)"><g><path d="M 3.5 0 L 3.5 -23.5 L 6.421875 -23.5 L 6.421875 0 Z M 3.5 0 "/></g></g></g><g fill="#4c307c" fill-opacity="1"><g transform="translate(480.238, 204.514521)"><g><path d="M 17.578125 -23.5 L 20.40625 -23.5 L 20.40625 0 L 17.375 0 L 6.3125 -18.75 L 6.3125 0 L 3.5 0 L 3.5 -23.5 L 6.484375 -23.5 L 17.578125 -4.8125 Z M 17.578125 -23.5 "/></g></g></g><g clip-path="url(#d5d13ccc0a)"><path fill="#4c307c" d="M 116.222656 24.625 L 219.917969 127.988281 L 204.570312 143.292969 L 116.222656 55.195312 L 27.875 143.292969 L 12.527344 127.988281 Z M 116.222656 24.625 " fill-opacity="1" fill-rule="evenodd"/></g><g clip-path="url(#1e0f51f4f4)"><path fill="#7f5ce9" d="M 27.875 185.972656 L 47.867188 185.972656 L 47.867188 208.871094 L 27.875 208.871094 Z M 27.875 185.972656 " fill-opacity="1" fill-rule="evenodd"/></g><g clip-path="url(#421c1b2b78)"><path fill="#4c307c" d="M 54.171875 185.972656 L 100.085938 185.972656 L 100.085938 208.871094 L 54.171875 208.871094 Z M 54.171875 185.972656 " fill-opacity="1" fill-rule="evenodd"/></g><g clip-path="url(#d068cc27cc)"><path fill="#7f5ce9" d="M 106.433594 185.972656 L 152.347656 185.972656 L 152.347656 208.871094 L 106.433594 208.871094 Z M 106.433594 185.972656 " fill-opacity="1" fill-rule="evenodd"/></g><g clip-path="url(#d370b984af)"><path fill="#4c307c" d="M 158.652344 185.972656 L 204.570312 185.972656 L 204.570312 208.871094 L 158.652344 208.871094 Z M 158.652344 185.972656 " fill-opacity="1" fill-rule="evenodd"/></g><path fill="#4c307c" d="M 27.875 156.980469 L 73.789062 156.980469 L 73.789062 179.875 L 27.875 179.875 Z M 27.875 156.980469 " fill-opacity="1" fill-rule="evenodd"/><path fill="#7f5ce9" d="M 80.09375 156.980469 L 126.011719 156.980469 L 126.011719 179.875 L 80.09375 179.875 Z M 80.09375 156.980469 " fill-opacity="1" fill-rule="evenodd"/><path fill="#4c307c" d="M 132.355469 156.980469 L 178.273438 156.980469 L 178.273438 179.875 L 132.355469 179.875 Z M 132.355469 156.980469 " fill-opacity="1" fill-rule="evenodd"/><path fill="#7f5ce9" d="M 184.578125 156.980469 L 204.570312 156.980469 L 204.570312 179.875 L 184.578125 179.875 Z M 184.578125 156.980469 " fill-opacity="1" fill-rule="evenodd"/><path fill="#4c307c" d="M 113.320312 136.492188 L 92.125 136.492188 L 92.125 116.125 L 113.320312 116.125 Z M 140.320312 116.125 L 140.320312 136.492188 L 119.125 136.492188 L 119.125 116.125 Z M 113.320312 110.359375 L 92.207031 110.359375 C 93.203125 99.078125 102.121094 89.953125 113.320312 88.625 Z M 119.125 88.582031 C 130.324219 89.953125 139.242188 99.035156 140.238281 110.316406 L 119.125 110.316406 Z M 119.125 88.582031 " fill-opacity="1" fill-rule="evenodd"/><path fill="#7f5ce9" d="M 116.222656 68.425781 L 191.421875 134.871094 L 116.222656 59.882812 L 41.023438 134.871094 Z M 116.222656 68.425781 " fill-opacity="1" fill-rule="evenodd"/></svg>