<svg xmlns="http://www.w3.org/2000/svg" xmlns:xlink="http://www.w3.org/1999/xlink" width="500" zoomAndPan="magnify" viewBox="0 0 375 374.999991" height="500" preserveAspectRatio="xMidYMid meet" version="1.0"><defs><g/><clipPath id="1c9262af3b"><path d="M 52.515625 3.105469 L 322.515625 3.105469 L 322.515625 158 L 52.515625 158 Z M 52.515625 3.105469 " clip-rule="nonzero"/></clipPath><clipPath id="484eeb5118"><path d="M 72 212 L 99 212 L 99 242.355469 L 72 242.355469 Z M 72 212 " clip-rule="nonzero"/></clipPath><clipPath id="a2e7e793f0"><path d="M 106 212 L 167 212 L 167 242.355469 L 106 242.355469 Z M 106 212 " clip-rule="nonzero"/></clipPath><clipPath id="db93d5c7cf"><path d="M 174 212 L 235 212 L 235 242.355469 L 174 242.355469 Z M 174 212 " clip-rule="nonzero"/></clipPath><clipPath id="c354ce9a5a"><path d="M 242 212 L 303 212 L 303 242.355469 L 242 242.355469 Z M 242 212 " clip-rule="nonzero"/></clipPath></defs><g fill="#7f5ce9" fill-opacity="1"><g transform="translate(47.72254, 323.940041)"><g><path d="M 5.421875 0 L 5.421875 -51.234375 L 30.375 -51.234375 C 35.738281 -51.234375 39.984375 -49.988281 43.109375 -47.5 C 46.234375 -45.007812 47.796875 -41.664062 47.796875 -37.46875 C 47.796875 -35.03125 47.257812 -32.820312 46.1875 -30.84375 C 45.113281 -28.875 43.578125 -27.328125 41.578125 -26.203125 C 44.015625 -25.128906 45.914062 -23.554688 47.28125 -21.484375 C 48.644531 -19.410156 49.328125 -17.003906 49.328125 -14.265625 C 49.328125 -11.484375 48.582031 -9.019531 47.09375 -6.875 C 45.601562 -4.726562 43.53125 -3.046875 40.875 -1.828125 C 38.21875 -0.609375 35.15625 0 31.6875 0 Z M 19.90625 -10.984375 L 28.828125 -10.984375 C 30.585938 -10.984375 31.941406 -11.410156 32.890625 -12.265625 C 33.847656 -13.117188 34.328125 -14.300781 34.328125 -15.8125 C 34.328125 -17.320312 33.847656 -18.488281 32.890625 -19.3125 C 31.941406 -20.144531 30.585938 -20.5625 28.828125 -20.5625 L 19.90625 -20.5625 Z M 19.90625 -31.109375 L 27.59375 -31.109375 C 31.15625 -31.109375 32.9375 -32.644531 32.9375 -35.71875 C 32.9375 -38.789062 31.15625 -40.328125 27.59375 -40.328125 L 19.90625 -40.328125 Z M 19.90625 -31.109375 "/></g></g></g><g fill="#7f5ce9" fill-opacity="1"><g transform="translate(96.967608, 323.940041)"><g><path d="M 5.421875 0 L 5.421875 -51.234375 L 28.765625 -51.234375 C 32.910156 -51.234375 36.484375 -50.488281 39.484375 -49 C 42.484375 -47.507812 44.800781 -45.394531 46.4375 -42.65625 C 48.070312 -39.925781 48.890625 -36.660156 48.890625 -32.859375 C 48.890625 -29.296875 48.15625 -26.1875 46.6875 -23.53125 C 45.226562 -20.875 43.132812 -18.785156 40.40625 -17.265625 L 49.84375 0 L 33.078125 0 L 25.765625 -14.5625 L 20.203125 -14.5625 L 20.203125 0 Z M 19.90625 -26.34375 L 26.78125 -26.34375 C 29.125 -26.34375 30.914062 -26.90625 32.15625 -28.03125 C 33.40625 -29.15625 34.03125 -30.738281 34.03125 -32.78125 C 34.03125 -34.832031 33.40625 -36.40625 32.15625 -37.5 C 30.914062 -38.601562 29.125 -39.15625 26.78125 -39.15625 L 19.90625 -39.15625 Z M 19.90625 -26.34375 "/></g></g></g><g fill="#7f5ce9" fill-opacity="1"><g transform="translate(147.456629, 323.940041)"><g><path d="M 5.421875 0 L 5.421875 -51.234375 L 20.203125 -51.234375 L 20.203125 0 Z M 5.421875 0 "/></g></g></g><g fill="#7f5ce9" fill-opacity="1"><g transform="translate(170.871527, 323.940041)"><g><path d="M 29.34375 1.09375 C 24.03125 1.09375 19.359375 -0.0234375 15.328125 -2.265625 C 11.304688 -4.515625 8.160156 -7.648438 5.890625 -11.671875 C 3.617188 -15.703125 2.484375 -20.347656 2.484375 -25.609375 C 2.484375 -30.878906 3.601562 -35.523438 5.84375 -39.546875 C 8.09375 -43.578125 11.226562 -46.710938 15.25 -48.953125 C 19.28125 -51.203125 23.929688 -52.328125 29.203125 -52.328125 C 33.785156 -52.328125 37.929688 -51.445312 41.640625 -49.6875 C 45.347656 -47.9375 48.457031 -45.472656 50.96875 -42.296875 C 53.488281 -39.128906 55.1875 -35.375 56.0625 -31.03125 L 41.125 -31.03125 C 40.34375 -33.320312 38.925781 -35.160156 36.875 -36.546875 C 34.832031 -37.941406 32.46875 -38.640625 29.78125 -38.640625 C 27.394531 -38.640625 25.273438 -38.085938 23.421875 -36.984375 C 21.566406 -35.890625 20.113281 -34.367188 19.0625 -32.421875 C 18.007812 -30.472656 17.484375 -28.203125 17.484375 -25.609375 C 17.484375 -23.078125 17.992188 -20.820312 19.015625 -18.84375 C 20.046875 -16.863281 21.476562 -15.328125 23.3125 -14.234375 C 25.144531 -13.140625 27.253906 -12.59375 29.640625 -12.59375 C 32.421875 -12.59375 34.832031 -13.3125 36.875 -14.75 C 38.925781 -16.1875 40.414062 -18.101562 41.34375 -20.5 L 56.359375 -20.5 C 55.617188 -16.15625 54.003906 -12.359375 51.515625 -9.109375 C 49.035156 -5.867188 45.90625 -3.359375 42.125 -1.578125 C 38.34375 0.203125 34.082031 1.09375 29.34375 1.09375 Z M 29.34375 1.09375 "/></g></g></g><g fill="#7f5ce9" fill-opacity="1"><g transform="translate(227.360786, 323.940041)"><g><path d="M 5.421875 0 L 5.421875 -51.234375 L 20.203125 -51.234375 L 20.203125 -32.859375 L 22.6875 -32.859375 C 24.445312 -32.859375 25.847656 -33.015625 26.890625 -33.328125 C 27.941406 -33.648438 28.796875 -34.210938 29.453125 -35.015625 C 30.117188 -35.828125 30.691406 -36.960938 31.171875 -38.421875 L 35.78125 -51.234375 L 51.8125 -51.234375 L 44.203125 -32.125 C 43.035156 -29.195312 41.671875 -26.785156 40.109375 -24.890625 L 53.578125 0 L 36.453125 0 L 26.640625 -19.390625 L 20.203125 -19.390625 L 20.203125 0 Z M 5.421875 0 "/></g></g></g><g fill="#7f5ce9" fill-opacity="1"><g transform="translate(280.484066, 323.940041)"><g><path d="M 23.78125 1.09375 C 17.144531 1.09375 11.945312 -0.476562 8.1875 -3.625 C 4.4375 -6.769531 2.5625 -11.097656 2.5625 -16.609375 L 16.828125 -16.609375 C 16.828125 -14.660156 17.425781 -13.132812 18.625 -12.03125 C 19.820312 -10.9375 21.46875 -10.390625 23.5625 -10.390625 C 25.375 -10.390625 26.789062 -10.742188 27.8125 -11.453125 C 28.832031 -12.160156 29.34375 -13.148438 29.34375 -14.421875 C 29.34375 -17.242188 26.269531 -19.269531 20.125 -20.5 C 8.65625 -22.6875 2.921875 -28.078125 2.921875 -36.671875 C 2.921875 -41.492188 4.664062 -45.304688 8.15625 -48.109375 C 11.644531 -50.921875 16.414062 -52.328125 22.46875 -52.328125 C 26.664062 -52.328125 30.3125 -51.617188 33.40625 -50.203125 C 36.507812 -48.785156 38.898438 -46.769531 40.578125 -44.15625 C 42.265625 -41.550781 43.109375 -38.492188 43.109375 -34.984375 L 29.203125 -34.984375 C 29.203125 -36.929688 28.640625 -38.414062 27.515625 -39.4375 C 26.390625 -40.46875 24.804688 -40.984375 22.765625 -40.984375 C 21.054688 -40.984375 19.6875 -40.628906 18.65625 -39.921875 C 17.632812 -39.210938 17.125 -38.222656 17.125 -36.953125 C 17.125 -35.640625 17.804688 -34.539062 19.171875 -33.65625 C 20.535156 -32.78125 22.851562 -31.976562 26.125 -31.25 C 32.375 -29.882812 36.925781 -27.894531 39.78125 -25.28125 C 42.632812 -22.675781 44.0625 -19.25 44.0625 -15 C 44.0625 -9.976562 42.28125 -6.039062 38.71875 -3.1875 C 35.15625 -0.332031 30.175781 1.09375 23.78125 1.09375 Z M 23.78125 1.09375 "/></g></g></g><g fill="#4c307c" fill-opacity="1"><g transform="translate(98.924047, 368.710095)"><g><path d="M 8.625 0.1875 C 7.625 0.1875 6.726562 0.046875 5.9375 -0.234375 C 5.144531 -0.515625 4.457031 -0.90625 3.875 -1.40625 C 3.289062 -1.914062 2.804688 -2.507812 2.421875 -3.1875 C 2.046875 -3.863281 1.757812 -4.601562 1.5625 -5.40625 C 1.375 -6.207031 1.28125 -7.035156 1.28125 -7.890625 C 1.28125 -8.742188 1.375 -9.570312 1.5625 -10.375 C 1.757812 -11.175781 2.046875 -11.914062 2.421875 -12.59375 C 2.804688 -13.269531 3.289062 -13.859375 3.875 -14.359375 C 4.457031 -14.859375 5.144531 -15.25 5.9375 -15.53125 C 6.726562 -15.820312 7.625 -15.96875 8.625 -15.96875 C 9.632812 -15.96875 10.535156 -15.820312 11.328125 -15.53125 C 12.128906 -15.25 12.820312 -14.859375 13.40625 -14.359375 C 13.988281 -13.859375 14.472656 -13.269531 14.859375 -12.59375 C 15.242188 -11.914062 15.53125 -11.175781 15.71875 -10.375 C 15.90625 -9.582031 16 -8.753906 16 -7.890625 C 16 -7.035156 15.90625 -6.207031 15.71875 -5.40625 C 15.53125 -4.601562 15.242188 -3.863281 14.859375 -3.1875 C 14.472656 -2.507812 13.988281 -1.914062 13.40625 -1.40625 C 12.820312 -0.90625 12.128906 -0.515625 11.328125 -0.234375 C 10.535156 0.046875 9.632812 0.1875 8.625 0.1875 Z M 8.625 -1.5625 C 9.570312 -1.5625 10.378906 -1.726562 11.046875 -2.0625 C 11.722656 -2.394531 12.269531 -2.851562 12.6875 -3.4375 C 13.113281 -4.03125 13.425781 -4.707031 13.625 -5.46875 C 13.832031 -6.238281 13.9375 -7.046875 13.9375 -7.890625 C 13.9375 -8.734375 13.832031 -9.535156 13.625 -10.296875 C 13.425781 -11.054688 13.113281 -11.726562 12.6875 -12.3125 C 12.269531 -12.90625 11.722656 -13.367188 11.046875 -13.703125 C 10.378906 -14.035156 9.570312 -14.203125 8.625 -14.203125 C 7.6875 -14.203125 6.882812 -14.035156 6.21875 -13.703125 C 5.550781 -13.367188 5.003906 -12.90625 4.578125 -12.3125 C 4.160156 -11.726562 3.847656 -11.054688 3.640625 -10.296875 C 3.441406 -9.535156 3.34375 -8.734375 3.34375 -7.890625 C 3.34375 -7.046875 3.441406 -6.238281 3.640625 -5.46875 C 3.847656 -4.707031 4.160156 -4.03125 4.578125 -3.4375 C 5.003906 -2.851562 5.550781 -2.394531 6.21875 -2.0625 C 6.882812 -1.726562 7.6875 -1.5625 8.625 -1.5625 Z M 8.625 -1.5625 "/></g></g></g><g fill="#4c307c" fill-opacity="1"><g transform="translate(125.354403, 368.710095)"><g><path d="M 11.796875 -15.765625 L 13.703125 -15.765625 L 13.703125 0 L 11.671875 0 L 4.234375 -12.578125 L 4.234375 0 L 2.34375 0 L 2.34375 -15.765625 L 4.359375 -15.765625 L 11.796875 -3.21875 Z M 11.796875 -15.765625 "/></g></g></g><g fill="#4c307c" fill-opacity="1"><g transform="translate(150.545598, 368.710095)"><g><path d="M 1.78125 -6.140625 L 1.78125 -7.59375 L 7.984375 -7.59375 L 7.984375 -6.140625 Z M 1.78125 -6.140625 "/></g></g></g><g fill="#4c307c" fill-opacity="1"><g transform="translate(169.462768, 368.710095)"><g><path d="M 8.609375 0.1875 C 7.390625 0.1875 6.320312 -0.015625 5.40625 -0.421875 C 4.5 -0.835938 3.738281 -1.410156 3.125 -2.140625 C 2.507812 -2.878906 2.050781 -3.738281 1.75 -4.71875 C 1.445312 -5.695312 1.296875 -6.757812 1.296875 -7.90625 C 1.296875 -9.039062 1.445312 -10.097656 1.75 -11.078125 C 2.050781 -12.066406 2.507812 -12.925781 3.125 -13.65625 C 3.738281 -14.382812 4.503906 -14.953125 5.421875 -15.359375 C 6.347656 -15.773438 7.425781 -15.984375 8.65625 -15.984375 C 10.21875 -15.984375 11.554688 -15.613281 12.671875 -14.875 C 13.785156 -14.144531 14.640625 -13.0625 15.234375 -11.625 L 13.390625 -10.890625 C 13.023438 -12.023438 12.4375 -12.84375 11.625 -13.34375 C 10.8125 -13.851562 9.816406 -14.109375 8.640625 -14.109375 C 7.722656 -14.109375 6.925781 -13.957031 6.25 -13.65625 C 5.582031 -13.363281 5.023438 -12.941406 4.578125 -12.390625 C 4.128906 -11.847656 3.796875 -11.203125 3.578125 -10.453125 C 3.359375 -9.703125 3.25 -8.878906 3.25 -7.984375 C 3.25 -7.097656 3.347656 -6.269531 3.546875 -5.5 C 3.753906 -4.738281 4.070312 -4.070312 4.5 -3.5 C 4.9375 -2.925781 5.492188 -2.476562 6.171875 -2.15625 C 6.847656 -1.84375 7.660156 -1.6875 8.609375 -1.6875 C 9.773438 -1.6875 10.75 -1.941406 11.53125 -2.453125 C 12.320312 -2.960938 12.957031 -3.789062 13.4375 -4.9375 L 15.265625 -4.1875 C 14.640625 -2.757812 13.757812 -1.671875 12.625 -0.921875 C 11.488281 -0.179688 10.148438 0.1875 8.609375 0.1875 Z M 8.609375 0.1875 "/></g></g></g><g fill="#4c307c" fill-opacity="1"><g transform="translate(194.765602, 368.710095)"><g><path d="M 2.34375 0 L 2.34375 -15.765625 L 4.3125 -15.765625 L 4.3125 -8.828125 L 12.140625 -8.828125 L 12.140625 -15.765625 L 14.09375 -15.765625 L 14.09375 0 L 12.140625 0 L 12.140625 -7.015625 L 4.3125 -7.015625 L 4.3125 0 Z M 2.34375 0 "/></g></g></g><g fill="#4c307c" fill-opacity="1"><g transform="translate(220.358686, 368.710095)"><g><path d="M 0.5625 0 L 6.5625 -15.765625 L 8.125 -15.765625 L 14.125 0 L 12 0 L 10.6875 -3.6875 L 4.046875 -3.6875 L 2.703125 0 Z M 4.65625 -5.375 L 10.0625 -5.375 L 7.359375 -12.953125 Z M 4.65625 -5.375 "/></g></g></g><g fill="#4c307c" fill-opacity="1"><g transform="translate(244.187906, 368.710095)"><g><path d="M 2.34375 0 L 2.34375 -15.765625 L 4.3125 -15.765625 L 4.3125 0 Z M 2.34375 0 "/></g></g></g><g fill="#4c307c" fill-opacity="1"><g transform="translate(260.00156, 368.710095)"><g><path d="M 11.796875 -15.765625 L 13.703125 -15.765625 L 13.703125 0 L 11.671875 0 L 4.234375 -12.578125 L 4.234375 0 L 2.34375 0 L 2.34375 -15.765625 L 4.359375 -15.765625 L 11.796875 -3.21875 Z M 11.796875 -15.765625 "/></g></g></g><g clip-path="url(#1c9262af3b)"><path fill="#4c307c" d="M 187.496094 3.007812 L 322.417969 137.496094 L 302.449219 157.410156 L 187.496094 42.78125 L 72.542969 157.410156 L 52.574219 137.496094 Z M 187.496094 3.007812 " fill-opacity="1" fill-rule="evenodd"/></g><g clip-path="url(#484eeb5118)"><path fill="#7f5ce9" d="M 72.542969 212.945312 L 98.554688 212.945312 L 98.554688 242.738281 L 72.542969 242.738281 Z M 72.542969 212.945312 " fill-opacity="1" fill-rule="evenodd"/></g><g clip-path="url(#a2e7e793f0)"><path fill="#4c307c" d="M 106.757812 212.945312 L 166.503906 212.945312 L 166.503906 242.738281 L 106.757812 242.738281 Z M 106.757812 212.945312 " fill-opacity="1" fill-rule="evenodd"/></g><g clip-path="url(#db93d5c7cf)"><path fill="#7f5ce9" d="M 174.757812 212.945312 L 234.503906 212.945312 L 234.503906 242.738281 L 174.757812 242.738281 Z M 174.757812 212.945312 " fill-opacity="1" fill-rule="evenodd"/></g><g clip-path="url(#c354ce9a5a)"><path fill="#4c307c" d="M 242.707031 212.945312 L 302.449219 212.945312 L 302.449219 242.738281 L 242.707031 242.738281 Z M 242.707031 212.945312 " fill-opacity="1" fill-rule="evenodd"/></g><path fill="#4c307c" d="M 72.542969 175.222656 L 132.285156 175.222656 L 132.285156 205.011719 L 72.542969 205.011719 Z M 72.542969 175.222656 " fill-opacity="1" fill-rule="evenodd"/><path fill="#7f5ce9" d="M 140.488281 175.222656 L 200.234375 175.222656 L 200.234375 205.011719 L 140.488281 205.011719 Z M 140.488281 175.222656 " fill-opacity="1" fill-rule="evenodd"/><path fill="#4c307c" d="M 208.488281 175.222656 L 268.234375 175.222656 L 268.234375 205.011719 L 208.488281 205.011719 Z M 208.488281 175.222656 " fill-opacity="1" fill-rule="evenodd"/><path fill="#7f5ce9" d="M 276.4375 175.222656 L 302.449219 175.222656 L 302.449219 205.011719 L 276.4375 205.011719 Z M 276.4375 175.222656 " fill-opacity="1" fill-rule="evenodd"/><path fill="#4c307c" d="M 183.71875 148.5625 L 156.140625 148.5625 L 156.140625 122.0625 L 183.71875 122.0625 Z M 218.851562 122.0625 L 218.851562 148.5625 L 191.273438 148.5625 L 191.273438 122.0625 Z M 183.71875 114.558594 L 156.25 114.558594 C 157.542969 99.878906 169.148438 88.007812 183.71875 86.28125 Z M 191.273438 86.226562 C 205.84375 88.007812 217.449219 99.828125 218.746094 114.507812 L 191.273438 114.507812 Z M 191.273438 86.226562 " fill-opacity="1" fill-rule="evenodd"/><path fill="#7f5ce9" d="M 187.496094 59.996094 L 285.34375 146.457031 L 187.496094 48.878906 L 89.648438 146.457031 Z M 187.496094 59.996094 " fill-opacity="1" fill-rule="evenodd"/></svg>